<?xml version="1.0" encoding="UTF-8" standalone="no"?>
<!-- Generated by graphviz version 2.36.0 (20140111.2315)
 -->

<!-- Title: G Pages: 1 -->

<svg
   xmlns:dc="http://purl.org/dc/elements/1.1/"
   xmlns:cc="http://creativecommons.org/ns#"
   xmlns:rdf="http://www.w3.org/1999/02/22-rdf-syntax-ns#"
   xmlns:svg="http://www.w3.org/2000/svg"
   xmlns="http://www.w3.org/2000/svg"
   xmlns:sodipodi="http://sodipodi.sourceforge.net/DTD/sodipodi-0.dtd"
   xmlns:inkscape="http://www.inkscape.org/namespaces/inkscape"
   width="1042pt"
   height="512pt"
   viewBox="0.00 0.00 1042.00 512.00"
   id="svg2"
   version="1.1"
   inkscape:version="0.48.4 r9939"
   sodipodi:docname="classifying-idea-amg2006-512.svg">
  <metadata
     id="metadata264">
    <rdf:RDF>
      <cc:Work
         rdf:about="">
        <dc:format>image/svg+xml</dc:format>
        <dc:type
           rdf:resource="http://purl.org/dc/dcmitype/StillImage" />
        <dc:title></dc:title>
      </cc:Work>
    </rdf:RDF>
  </metadata>
  <defs
     id="defs262" />
  <sodipodi:namedview
     pagecolor="#ffffff"
     bordercolor="#666666"
     borderopacity="1"
     objecttolerance="10"
     gridtolerance="10"
     guidetolerance="10"
     inkscape:pageopacity="0"
     inkscape:pageshadow="2"
     inkscape:window-width="1600"
     inkscape:window-height="837"
     id="namedview260"
     showgrid="false"
     inkscape:zoom="0.97658349"
     inkscape:cx="665.56914"
     inkscape:cy="297.89657"
     inkscape:window-x="-3"
     inkscape:window-y="-3"
     inkscape:window-maximized="1"
     inkscape:current-layer="node6" />
  <g
     id="graph0"
     class="graph"
     transform="scale(1 1) rotate(0) translate(4 508)">
    <title
       id="title5">G</title>
    <!-- n0x57811e0 -->
    <g
       id="node1"
       class="node">
      <title
         id="title10">n0x57811e0</title>
      <ellipse
         fill="none"
         stroke="black"
         cx="382"
         cy="-477"
         rx="162.452"
         ry="26.7407"
         id="ellipse12"
         d="m 544.452,-477 c 0,14.76848 -72.73224,26.7407 -162.452,26.7407 -89.71976,0 -162.452,-11.97222 -162.452,-26.7407 0,-14.76848 72.73224,-26.7407 162.452,-26.7407 89.71976,0 162.452,11.97222 162.452,26.7407 z" />
      <text
         text-anchor="start"
         x="371"
         y="-480.8"
         font-family="Times,serif"
         font-size="14.00"
         id="text14">min</text>
      <text
         x="275"
         y="-465.79999"
         font-size="14.00"
         id="text16"
         style="font-size:14px;text-anchor:start;font-family:'Times,serif'">function pairs (478): 293 -&gt; 241, 246 -&gt; 245...</text>
    </g>
    <!-- n0x6d5d5f0 -->
    <g
       id="node2"
       class="node">
      <title
         id="title19">n0x6d5d5f0</title>
      <ellipse
         fill="none"
         stroke="black"
         cx="267"
         cy="-396"
         rx="81.3398"
         ry="18"
         id="ellipse21"
         d="m 348.3398,-396 c 0,9.94113 -36.41707,18 -81.3398,18 -44.92273,0 -81.3398,-8.05887 -81.3398,-18 0,-9.94113 36.41707,-18 81.3398,-18 44.92273,0 81.3398,8.05887 81.3398,18 z" />
      <text
         x="217.81938"
         y="-362.71243"
         font-size="14.00"
         id="text23"
         style="font-size:12.94410992px;text-anchor:start;font-family:'Times,serif'"
         transform="scale(0.92457924,1.0815731)">function pairs (1): 246 -&gt; 95</text>
    </g>
    <!-- n0x57811e0&#45;&gt;n0x6d5d5f0 -->
    <g
       id="edge1"
       class="edge">
      <title
         id="title26">n0x57811e0-&gt;n0x6d5d5f0</title>
      <path
         fill="none"
         stroke="black"
         d="M345.297,-450.787C330.491,-440.615 313.558,-428.983 299.235,-419.144"
         id="path28" />
      <polygon
         fill="black"
         stroke="black"
         points="300.922,-416.056 290.697,-413.279 296.958,-421.826 300.922,-416.056"
         id="polygon30" />
    </g>
    <!-- n0x56a08e0 -->
    <g
       id="node11"
       class="node">
      <title
         id="title33">n0x56a08e0</title>
      <ellipse
         fill="none"
         stroke="black"
         cx="498"
         cy="-396"
         rx="130.457"
         ry="18"
         id="ellipse35"
         d="m 628.457,-396 c 0,9.94113 -58.40759,18 -130.457,18 -72.04941,0 -130.457,-8.05887 -130.457,-18 0,-9.94113 58.40759,-18 130.457,-18 72.04941,0 130.457,8.05887 130.457,18 z" />
      <text
         x="392.19485"
         y="-386.77032"
         font-size="14.00"
         id="text37"
         style="font-size:13.80266285px;text-anchor:start;font-family:'Times,serif'"
         transform="scale(0.98590448,1.014297)">function pairs (2): 249 -&gt; 113, 249 -&gt; 132</text>
    </g>
    <!-- n0x57811e0&#45;&gt;n0x56a08e0 -->
    <g
       id="edge13"
       class="edge">
      <title
         id="title40">n0x57811e0-&gt;n0x56a08e0</title>
      <path
         fill="none"
         stroke="black"
         d="M419.022,-450.787C433.738,-440.765 450.535,-429.325 464.845,-419.58"
         id="path42" />
      <polygon
         fill="black"
         stroke="black"
         points="467.098,-422.28 473.393,-413.758 463.157,-416.495 467.098,-422.28"
         id="polygon44" />
    </g>
    <!-- n0xf3dd70 -->
    <g
       id="node3"
       class="node">
      <title
         id="title47">n0xf3dd70</title>
      <ellipse
         fill="none"
         stroke="black"
         cx="205"
         cy="-180"
         rx="173.302"
         ry="18"
         id="ellipse49"
         d="m 378.302,-180 c 0,9.94113 -77.58995,18 -173.302,18 -95.71205,0 -173.302002,-8.05887 -173.302002,-18 0,-9.94113 77.589952,-18 173.302002,-18 95.71205,0 173.302,8.05887 173.302,18 z" />
      <text
         x="61.477989"
         y="-176.3"
         font-size="14.00"
         id="text51"
         style="font-size:14px;text-anchor:start;font-family:'Times,serif'">function pairs (4): 330 -&gt; 85, 324 -&gt; 85, 330 -&gt; 133...</text>
    </g>
    <!-- n0x6d5d5f0&#45;&gt;n0xf3dd70 -->
    <g
       id="edge2"
       class="edge">
      <title
         id="title54">n0x6d5d5f0-&gt;n0xf3dd70</title>
      <path
         fill="none"
         stroke="black"
         d="M243.245,-378.396C215.041,-357.068 169.498,-317.126 151,-270 145.154,-255.106 144.808,-248.753 151,-234 155.679,-222.852 163.973,-212.869 172.679,-204.655"
         id="path56" />
      <polygon
         fill="black"
         stroke="black"
         points="175.155,-207.138 180.355,-197.906 170.533,-201.881 175.155,-207.138"
         id="polygon58" />
    </g>
    <!-- n0x10c6e90 -->
    <g
       id="node7"
       class="node">
      <title
         id="title61">n0x10c6e90</title>
      <ellipse
         fill="none"
         stroke="black"
         cx="348"
         cy="-324"
         rx="27"
         ry="18"
         id="ellipse63"
         d="m 375,-324 c 0,9.94113 -12.08831,18 -27,18 -14.91169,0 -27,-8.05887 -27,-18 0,-9.94113 12.08831,-18 27,-18 14.91169,0 27,8.05887 27,18 z" />
      <text
         text-anchor="start"
         x="346"
         y="-320.3"
         font-family="Times,serif"
         font-size="14.00"
         id="text65" />
    </g>
    <!-- n0x6d5d5f0&#45;&gt;n0x10c6e90 -->
    <g
       id="edge7"
       class="edge">
      <title
         id="title68">n0x6d5d5f0-&gt;n0x10c6e90</title>
      <path
         fill="none"
         stroke="black"
         d="M286.196,-378.411C297.709,-368.462 312.433,-355.737 324.621,-345.204"
         id="path70" />
      <polygon
         fill="black"
         stroke="black"
         points="326.928,-347.837 332.205,-338.65 322.35,-342.54 326.928,-347.837"
         id="polygon72" />
    </g>
    <!-- n0xc082b0 -->
    <g
       id="node4"
       class="node">
      <title
         id="title75">n0xc082b0</title>
      <ellipse
         fill="none"
         stroke="black"
         cx="205"
         cy="-99"
         rx="205.153"
         ry="26.7407"
         id="ellipse77"
         d="m 410.153,-99 c 0,14.768481 -91.85013,26.7407 -205.153,26.7407 -113.302873,0 -205.15299988,-11.972219 -205.15299988,-26.7407 0,-14.76848 91.85012688,-26.7407 205.15299988,-26.7407 113.30287,0 205.153,11.97222 205.153,26.7407 z" />
      <text
         text-anchor="start"
         x="162"
         y="-102.8"
         font-family="Times,serif"
         font-size="14.00"
         id="text79">processes (1): 1</text>
      <text
         x="67.5"
         y="-87.800003"
         font-size="14.00"
         id="text81"
         style="font-size:14px;text-anchor:start;font-family:'Times,serif'">function pairs (10): 328 -&gt; 328, 328 -&gt; 329, 324 -&gt; 328...</text>
    </g>
    <!-- n0xf3dd70&#45;&gt;n0xc082b0 -->
    <g
       id="edge3"
       class="edge">
      <title
         id="title84">n0xf3dd70-&gt;n0xc082b0</title>
      <path
         fill="none"
         stroke="black"
         d="M205,-161.858C205,-154.356 205,-145.25 205,-136.358"
         id="path86" />
      <polygon
         fill="black"
         stroke="black"
         points="208.5,-136.126 205,-126.126 201.5,-136.126 208.5,-136.126"
         id="polygon88" />
    </g>
    <!-- n0xeb3480 -->
    <g
       id="node6"
       class="node">
      <title
         id="title91">n0xeb3480</title>
      <ellipse
         fill="none"
         stroke="black"
         cx="625"
         cy="-99"
         rx="196.363"
         ry="26.7407"
         id="ellipse93"
         d="m 821.36301,-99 c 0,14.768481 -87.91472,26.7407 -196.36301,26.7407 -108.44829,0 -196.36301,-11.972219 -196.36301,-26.7407 0,-14.76848 87.91472,-26.7407 196.36301,-26.7407 108.44829,0 196.36301,11.97222 196.36301,26.7407 z" />
      <text
         text-anchor="start"
         x="503.5"
         y="-102.8"
         font-family="Times,serif"
         font-size="14.00"
         id="text95">processes (7): 55, 167, 194, 237, 245, 478...</text>
      <text
         x="512.93207"
         y="-84.56282"
         font-size="14.00"
         id="text97"
         style="font-size:13.48381996px;text-anchor:start;font-family:'Times,serif'"
         transform="scale(0.96313002,1.0382814)">function pairs (13): 321 -&gt; 348, 330 -&gt; 94, 330 -&gt; 95...</text>
    </g>
    <!-- n0xf3dd70&#45;&gt;n0xeb3480 -->
    <g
       id="edge5"
       class="edge">
      <title
         id="title100">n0xf3dd70-&gt;n0xeb3480</title>
      <path
         fill="none"
         stroke="black"
         d="M284.987,-163.955C346.464,-152.391 432.447,-136.218 502.565,-123.029"
         id="path102" />
      <polygon
         fill="black"
         stroke="black"
         points="503.61,-126.394 512.79,-121.106 502.316,-119.515 503.61,-126.394"
         id="polygon104" />
    </g>
    <!-- n0xe9c570 -->
    <g
       id="node5"
       class="node">
      <title
         id="title107">n0xe9c570</title>
      <ellipse
         fill="none"
         stroke="black"
         cx="415"
         cy="-18"
         rx="28.3955"
         ry="18"
         id="ellipse109"
         d="m 443.3955,-18 c 0,9.9411255 -12.7131,18 -28.3955,18 -15.6824,0 -28.3955,-8.0588745 -28.3955,-18 0,-9.941125 12.7131,-18 28.3955,-18 15.6824,0 28.3955,8.058875 28.3955,18 z" />
      <text
         text-anchor="start"
         x="401"
         y="-14.3"
         font-family="Times,serif"
         font-size="14.00"
         id="text111">max </text>
    </g>
    <!-- n0xc082b0&#45;&gt;n0xe9c570 -->
    <g
       id="edge4"
       class="edge">
      <title
         id="title114">n0xc082b0-&gt;n0xe9c570</title>
      <path
         fill="none"
         stroke="black"
         d="M270.294,-73.437C307.29,-59.5196 351.997,-42.701 381.837,-31.4757"
         id="path116" />
      <polygon
         fill="black"
         stroke="black"
         points="383.226,-34.6925 391.353,-27.8956 380.761,-28.1408 383.226,-34.6925"
         id="polygon118" />
    </g>
    <!-- n0xeb3480&#45;&gt;n0xe9c570 -->
    <g
       id="edge6"
       class="edge">
      <title
         id="title121">n0xeb3480-&gt;n0xe9c570</title>
      <path
         fill="none"
         stroke="black"
         d="M559.993,-73.5449C522.98,-59.6211 478.172,-42.7648 448.256,-31.5106"
         id="path123" />
      <polygon
         fill="black"
         stroke="black"
         points="449.306,-28.1662 438.714,-27.921 446.841,-34.7179 449.306,-28.1662"
         id="polygon125" />
    </g>
    <!-- n0x114a980 -->
    <g
       id="node8"
       class="node">
      <title
         id="title128">n0x114a980</title>
      <ellipse
         fill="none"
         stroke="black"
         cx="699"
         cy="-252"
         rx="162.228"
         ry="18"
         id="ellipse130"
         d="m 861.228,-252 c 0,9.94113 -72.63195,18 -162.228,18 -89.59605,0 -162.228,-8.05887 -162.228,-18 0,-9.94113 72.63195,-18 162.228,-18 89.59605,0 162.228,8.05887 162.228,18 z" />
      <text
         text-anchor="start"
         x="582"
         y="-248.3"
         font-family="Times,serif"
         font-size="14.00"
         id="text132">processes (44): 8, 10, 12, 43, 52, 57, 62... </text>
    </g>
    <!-- n0x10c6e90&#45;&gt;n0x114a980 -->
    <g
       id="edge8"
       class="edge">
      <title
         id="title135">n0x10c6e90-&gt;n0x114a980</title>
      <path
         fill="none"
         stroke="black"
         d="M371.646,-314.994C381.296,-311.91 392.609,-308.526 403,-306 466.289,-290.614 538.191,-277.637 595.281,-268.375"
         id="path137" />
      <polygon
         fill="black"
         stroke="black"
         points="596.082,-271.791 605.399,-266.747 594.97,-264.88 596.082,-271.791"
         id="polygon139" />
    </g>
    <!-- n0xf02cf0 -->
    <g
       id="node10"
       class="node">
      <title
         id="title142">n0xf02cf0</title>
      <ellipse
         fill="none"
         stroke="black"
         cx="339"
         cy="-252"
         rx="179.076"
         ry="18"
         id="ellipse144"
         d="m 518.076,-252 c 0,9.94113 -80.17505,18 -179.076,18 -98.90095,0 -179.076,-8.05887 -179.076,-18 0,-9.94113 80.17505,-18 179.076,-18 98.90095,0 179.076,8.05887 179.076,18 z" />
      <text
         text-anchor="start"
         x="209"
         y="-248.3"
         font-family="Times,serif"
         font-size="14.00"
         id="text146">processes (17): 171, 211, 219, 228, 229, 231... </text>
    </g>
    <!-- n0x10c6e90&#45;&gt;n0xf02cf0 -->
    <g
       id="edge11"
       class="edge">
      <title
         id="title149">n0x10c6e90-&gt;n0xf02cf0</title>
      <path
         fill="none"
         stroke="black"
         d="M345.821,-306.055C344.83,-298.346 343.632,-289.027 342.518,-280.364"
         id="path151" />
      <polygon
         fill="black"
         stroke="black"
         points="345.968,-279.747 341.221,-270.275 339.025,-280.64 345.968,-279.747"
         id="polygon153" />
    </g>
    <!-- n0x52e9de0 -->
    <g
       id="node9"
       class="node">
      <title
         id="title156">n0x52e9de0</title>
      <ellipse
         fill="none"
         stroke="black"
         cx="662"
         cy="-180"
         rx="167.528"
         ry="18"
         id="ellipse158"
         d="m 829.528,-180 c 0,9.94113 -75.00484,18 -167.528,18 -92.52316,0 -167.528,-8.05887 -167.528,-18 0,-9.94113 75.00484,-18 167.528,-18 92.52316,0 167.528,8.05887 167.528,18 z" />
      <text
         text-anchor="start"
         x="541"
         y="-176.3"
         font-family="Times,serif"
         font-size="14.00"
         id="text160">processes (442): 2, 3, 4, 5, 6, 7, 9, 11, 13... </text>
    </g>
    <!-- n0x114a980&#45;&gt;n0x52e9de0 -->
    <g
       id="edge9"
       class="edge">
      <title
         id="title163">n0x114a980-&gt;n0x52e9de0</title>
      <path
         fill="none"
         stroke="black"
         d="M689.854,-233.697C685.597,-225.644 680.444,-215.894 675.734,-206.982"
         id="path165" />
      <polygon
         fill="black"
         stroke="black"
         points="678.808,-205.31 671.041,-198.104 672.62,-208.581 678.808,-205.31"
         id="polygon167" />
    </g>
    <!-- n0x52e9de0&#45;&gt;n0xeb3480 -->
    <g
       id="edge10"
       class="edge">
      <title
         id="title170">n0x52e9de0-&gt;n0xeb3480</title>
      <path
         fill="none"
         stroke="black"
         d="M653.972,-161.858C650.273,-153.962 645.743,-144.289 641.373,-134.958"
         id="path172" />
      <polygon
         fill="black"
         stroke="black"
         points="644.504,-133.391 637.093,-125.82 638.165,-136.36 644.504,-133.391"
         id="polygon174" />
    </g>
    <!-- n0xf02cf0&#45;&gt;n0x52e9de0 -->
    <g
       id="edge12"
       class="edge">
      <title
         id="title177">n0xf02cf0-&gt;n0x52e9de0</title>
      <path
         fill="none"
         stroke="black"
         d="M410.684,-235.465C461.145,-224.529 528.757,-209.876 581.142,-198.523"
         id="path179" />
      <polygon
         fill="black"
         stroke="black"
         points="582.041,-201.91 591.073,-196.371 580.558,-195.069 582.041,-201.91"
         id="polygon181" />
    </g>
    <!-- n0x56a08e0&#45;&gt;n0x10c6e90 -->
    <g
       id="edge14"
       class="edge">
      <title
         id="title184">n0x56a08e0-&gt;n0x10c6e90</title>
      <path
         fill="none"
         stroke="black"
         d="M462.832,-378.588C437.299,-366.673 403.09,-350.709 378.666,-339.311"
         id="path186" />
      <polygon
         fill="black"
         stroke="black"
         points="380.042,-336.091 369.5,-335.033 377.082,-342.434 380.042,-336.091"
         id="polygon188" />
    </g>
    <!-- n0x6d2a860 -->
    <g
       id="node12"
       class="node">
      <title
         id="title191">n0x6d2a860</title>
      <ellipse
         fill="none"
         stroke="black"
         cx="699"
         cy="-324"
         rx="86.1637"
         ry="18"
         id="ellipse193"
         d="m 785.1637,-324 c 0,9.94113 -38.5768,18 -86.1637,18 -47.5869,0 -86.1637,-8.05887 -86.1637,-18 0,-9.94113 38.5768,-18 86.1637,-18 47.5869,0 86.1637,8.05887 86.1637,18 z" />
      <text
         x="662.05255"
         y="-302.3576"
         font-size="14.00"
         id="text195"
         style="font-size:13.21575546px;text-anchor:start;font-family:'Times,serif'"
         transform="scale(0.94398253,1.0593416)">function pairs (1): 246 -&gt; 244</text>
    </g>
    <!-- n0x56a08e0&#45;&gt;n0x6d2a860 -->
    <g
       id="edge15"
       class="edge">
      <title
         id="title198">n0x56a08e0-&gt;n0x6d2a860</title>
      <path
         fill="none"
         stroke="black"
         d="M543.61,-379.116C574.366,-368.405 615.015,-354.249 647.023,-343.101"
         id="path200" />
      <polygon
         fill="black"
         stroke="black"
         points="648.366,-346.34 656.659,-339.746 646.064,-339.729 648.366,-346.34"
         id="polygon202" />
    </g>
    <!-- n0xa754df0 -->
    <g
       id="node14"
       class="node">
      <title
         id="title205">n0xa754df0</title>
      <ellipse
         fill="none"
         stroke="black"
         cx="498"
         cy="-324"
         rx="86.1637"
         ry="18"
         id="ellipse207"
         d="m 584.1637,-324 c 0,9.94113 -38.5768,18 -86.1637,18 -47.5869,0 -86.1637,-8.05887 -86.1637,-18 0,-9.94113 38.5768,-18 86.1637,-18 47.5869,0 86.1637,8.05887 86.1637,18 z" />
      <text
         x="441.43057"
         y="-307.2178"
         font-size="14.00"
         id="text209"
         style="font-size:13.3939352px;text-anchor:start;font-family:'Times,serif'"
         transform="scale(0.95670968,1.0452492)">function pairs (1): 247 -&gt; 251</text>
    </g>
    <!-- n0x56a08e0&#45;&gt;n0xa754df0 -->
    <g
       id="edge19"
       class="edge">
      <title
         id="title212">n0x56a08e0-&gt;n0xa754df0</title>
      <path
         fill="none"
         stroke="black"
         d="M498,-377.697C498,-369.983 498,-360.712 498,-352.112"
         id="path214" />
      <polygon
         fill="black"
         stroke="black"
         points="501.5,-352.104 498,-342.104 494.5,-352.104 501.5,-352.104"
         id="polygon216" />
    </g>
    <!-- n0x6d2a860&#45;&gt;n0x114a980 -->
    <g
       id="edge18"
       class="edge">
      <title
         id="title219">n0x6d2a860-&gt;n0x114a980</title>
      <path
         fill="none"
         stroke="black"
         d="M699,-305.697C699,-297.983 699,-288.712 699,-280.112"
         id="path221" />
      <polygon
         fill="black"
         stroke="black"
         points="702.5,-280.104 699,-270.104 695.5,-280.104 702.5,-280.104"
         id="polygon223" />
    </g>
    <!-- n0x6d104a0 -->
    <g
       id="node13"
       class="node">
      <title
         id="title226">n0x6d104a0</title>
      <ellipse
         fill="none"
         stroke="black"
         cx="957"
         cy="-252"
         rx="77.0154"
         ry="18"
         id="ellipse228"
         d="m 1034.0154,-252 c 0,9.94113 -34.48097,18 -77.0154,18 -42.53443,0 -77.0154,-8.05887 -77.0154,-18 0,-9.94113 34.48097,-18 77.0154,-18 42.53443,0 77.0154,8.05887 77.0154,18 z" />
      <text
         text-anchor="start"
         x="905.5"
         y="-248.3"
         font-family="Times,serif"
         font-size="14.00"
         id="text230">processes (1): 512 </text>
    </g>
    <!-- n0x6d2a860&#45;&gt;n0x6d104a0 -->
    <g
       id="edge16"
       class="edge">
      <title
         id="title233">n0x6d2a860-&gt;n0x6d104a0</title>
      <path
         fill="none"
         stroke="black"
         d="M749.357,-309.337C792.167,-297.722 853.661,-281.038 898.616,-268.841"
         id="path235" />
      <polygon
         fill="black"
         stroke="black"
         points="899.783,-272.151 908.517,-266.154 897.95,-265.395 899.783,-272.151"
         id="polygon237" />
    </g>
    <!-- n0x6d104a0&#45;&gt;n0x52e9de0 -->
    <g
       id="edge17"
       class="edge">
      <title
         id="title240">n0x6d104a0-&gt;n0x52e9de0</title>
      <path
         fill="none"
         stroke="black"
         d="M904.939,-238.647C858.554,-227.64 790.102,-211.397 737.67,-198.956"
         id="path242" />
      <polygon
         fill="black"
         stroke="black"
         points="738.281,-195.503 727.743,-196.6 736.664,-202.314 738.281,-195.503"
         id="polygon244" />
    </g>
    <!-- n0xa754df0&#45;&gt;n0xf02cf0 -->
    <g
       id="edge21"
       class="edge">
      <title
         id="title247">n0xa754df0-&gt;n0xf02cf0</title>
      <path
         fill="none"
         stroke="black"
         d="M462.713,-307.465C440.259,-297.58 410.906,-284.657 386.428,-273.88"
         id="path249" />
      <polygon
         fill="black"
         stroke="black"
         points="387.527,-270.54 376.964,-269.714 384.707,-276.947 387.527,-270.54"
         id="polygon251" />
    </g>
    <!-- n0xa754df0&#45;&gt;n0x6d104a0 -->
    <g
       id="edge20"
       class="edge">
      <title
         id="title254">n0xa754df0-&gt;n0x6d104a0</title>
      <path
         fill="none"
         stroke="black"
         d="M563.553,-312.23C576.926,-310.105 590.909,-307.935 604,-306 722.017,-288.553 752.296,-289.448 870,-270 876.733,-268.888 883.744,-267.65 890.735,-266.365"
         id="path256" />
      <polygon
         fill="black"
         stroke="black"
         points="891.742,-269.737 900.927,-264.457 890.454,-262.857 891.742,-269.737"
         id="polygon258" />
    </g>
  </g>
</svg>
