<?xml version="1.0" encoding="UTF-8" standalone="no"?>
<!-- Generated by graphviz version 2.36.0 (20140111.2315)
 -->

<!-- Title: G Pages: 1 -->

<svg
   xmlns:dc="http://purl.org/dc/elements/1.1/"
   xmlns:cc="http://creativecommons.org/ns#"
   xmlns:rdf="http://www.w3.org/1999/02/22-rdf-syntax-ns#"
   xmlns:svg="http://www.w3.org/2000/svg"
   xmlns="http://www.w3.org/2000/svg"
   xmlns:sodipodi="http://sodipodi.sourceforge.net/DTD/sodipodi-0.dtd"
   xmlns:inkscape="http://www.inkscape.org/namespaces/inkscape"
   width="1008.75"
   height="392.5"
   viewBox="0 0 807 314"
   id="svg2"
   version="1.1"
   inkscape:version="0.48.4 r9939"
   sodipodi:docname="classifying-idea-wrf-hybrid-016.svg">
  <metadata
     id="metadata91">
    <rdf:RDF>
      <cc:Work
         rdf:about="">
        <dc:format>image/svg+xml</dc:format>
        <dc:type
           rdf:resource="http://purl.org/dc/dcmitype/StillImage" />
        <dc:title></dc:title>
      </cc:Work>
    </rdf:RDF>
  </metadata>
  <defs
     id="defs89" />
  <sodipodi:namedview
     pagecolor="#ffffff"
     bordercolor="#666666"
     borderopacity="1"
     objecttolerance="10"
     gridtolerance="10"
     guidetolerance="10"
     inkscape:pageopacity="0"
     inkscape:pageshadow="2"
     inkscape:window-width="1600"
     inkscape:window-height="837"
     id="namedview87"
     showgrid="false"
     inkscape:zoom="0.63048325"
     inkscape:cx="232.81285"
     inkscape:cy="146.1377"
     inkscape:window-x="-3"
     inkscape:window-y="-3"
     inkscape:window-maximized="1"
     inkscape:current-layer="graph0"
     fit-margin-top="0"
     fit-margin-left="0"
     fit-margin-right="0"
     fit-margin-bottom="0" />
  <g
     id="graph0"
     class="graph"
     transform="translate(4,310)">
    <title
       id="title5">G</title>
    <polygon
       points="-4,4 -4,4 -4,-310 803,-310 803,4 "
       id="polygon7"
       style="fill:#ffffff;stroke:none" />
    <!-- n0x2710f90 -->
    <g
       id="node1"
       class="node">
      <title
         id="title10">n0x2710f90</title>
      <ellipse
         cx="379"
         cy="-279"
         rx="179.96899"
         ry="26.7407"
         id="ellipse12"
         d="m 558.96899,-279 c 0,14.76848 -80.57486,26.7407 -179.96899,26.7407 -99.39413,0 -179.96899,-11.97222 -179.96899,-26.7407 0,-14.76848 80.57486,-26.7407 179.96899,-26.7407 99.39413,0 179.96899,11.97222 179.96899,26.7407 z"
         sodipodi:cx="379"
         sodipodi:cy="-279"
         sodipodi:rx="179.96899"
         sodipodi:ry="26.7407"
         style="fill:none;stroke:#000000" />
      <text
         x="368"
         y="-282.79999"
         font-size="14.00"
         id="text14"
         style="font-size:14px;text-anchor:start;font-family:'Times,serif'">min</text>
      <text
         x="259.5"
         y="-267.79999"
         font-size="14.00"
         id="text16"
         style="font-size:14px;text-anchor:start;font-family:'Times,serif'">function pairs (109): 510 -&gt; 597, 546 -&gt; 608...</text>
    </g>
    <!-- n0x26ee830 -->
    <g
       id="node2"
       class="node">
      <title
         id="title19">n0x26ee830</title>
      <ellipse
         cx="230"
         cy="-189"
         rx="161.33099"
         ry="26.7407"
         id="ellipse21"
         d="m 391.33099,-189 c 0,14.76848 -72.23034,26.7407 -161.33099,26.7407 -89.10065,0 -161.330994,-11.97222 -161.330994,-26.7407 0,-14.76848 72.230344,-26.7407 161.330994,-26.7407 89.10065,0 161.33099,11.97222 161.33099,26.7407 z"
         sodipodi:cx="230"
         sodipodi:cy="-189"
         sodipodi:rx="161.33099"
         sodipodi:ry="26.7407"
         style="fill:none;stroke:#000000" />
      <text
         x="179.5"
         y="-192.8"
         font-size="14.00"
         id="text23"
         style="font-size:14px;text-anchor:start;font-family:'Times,serif'">processes (3): 2, 3, 4</text>
      <text
         x="124"
         y="-177.8"
         font-size="14.00"
         id="text25"
         style="font-size:14px;text-anchor:start;font-family:'Times,serif'">function pairs (216): 7 -&gt; 463, 7 -&gt; 460...</text>
    </g>
    <!-- n0x2710f90&#45;&gt;n0x26ee830 -->
    <g
       id="edge1"
       class="edge">
      <title
         id="title28">n0x2710f90-&gt;n0x26ee830</title>
      <path
         d="m 336.303,-252.783 c -17.219,10.17 -37.229,21.988 -55.213,32.609"
         id="path30"
         inkscape:connector-curvature="0"
         style="fill:none;stroke:#000000" />
      <polygon
         points="272.446,-215.069 279.276,-223.168 282.836,-217.14 282.836,-217.14 "
         id="polygon32"
         style="fill:#000000;stroke:#000000" />
    </g>
    <!-- n0x24489f0 -->
    <g
       id="node5"
       class="node">
      <title
         id="title35">n0x24489f0</title>
      <ellipse
         cx="584"
         cy="-99"
         rx="215.50101"
         ry="26.7407"
         id="ellipse37"
         d="m 799.50101,-99 c 0,14.768481 -96.48309,26.7407 -215.50101,26.7407 -119.01792,0 -215.50101,-11.972219 -215.50101,-26.7407 0,-14.76848 96.48309,-26.7407 215.50101,-26.7407 119.01792,0 215.50101,11.97222 215.50101,26.7407 z"
         sodipodi:cx="584"
         sodipodi:cy="-99"
         sodipodi:rx="215.50101"
         sodipodi:ry="26.7407"
         style="fill:none;stroke:#000000" />
      <text
         x="439.5"
         y="-102.8"
         font-size="14.00"
         id="text39"
         style="font-size:14px;text-anchor:start;font-family:'Times,serif'">processes (12): 65537, 65538, 65539, 65540, 131073...</text>
      <text
         x="481.5"
         y="-87.800003"
         font-size="14.00"
         id="text41"
         style="font-size:14px;text-anchor:start;font-family:'Times,serif'">function pairs (33): 0 -&gt; 559, 0 -&gt; 553...</text>
    </g>
    <!-- n0x2710f90&#45;&gt;n0x24489f0 -->
    <g
       id="edge4"
       class="edge">
      <title
         id="title44">n0x2710f90-&gt;n0x24489f0</title>
      <path
         d="m 408.809,-252.117 c 36.541,31.728 98.477,85.507 138.072,119.887"
         id="path46"
         inkscape:connector-curvature="0"
         style="fill:none;stroke:#000000" />
      <polygon
         points="554.488,-125.625 544.642,-129.539 549.232,-134.824 549.232,-134.824 "
         id="polygon48"
         style="fill:#000000;stroke:#000000" />
    </g>
    <!-- n0x2457880 -->
    <g
       id="node3"
       class="node">
      <title
         id="title51">n0x2457880</title>
      <ellipse
         cx="175"
         cy="-99"
         rx="175.04401"
         ry="26.7407"
         id="ellipse53"
         d="m 350.04401,-99 c 0,14.768481 -78.36987,26.7407 -175.04401,26.7407 -96.674135,0 -175.04400635,-11.972219 -175.04400635,-26.7407 0,-14.76848 78.36987135,-26.7407 175.04400635,-26.7407 96.67414,0 175.04401,11.97222 175.04401,26.7407 z"
         sodipodi:cx="175"
         sodipodi:cy="-99"
         sodipodi:rx="175.04401"
         sodipodi:ry="26.7407"
         style="fill:none;stroke:#000000" />
      <text
         x="138.5"
         y="-102.8"
         font-size="14.00"
         id="text55"
         style="font-size:14px;text-anchor:start;font-family:'Times,serif'">processes (1): 1</text>
      <text
         x="59"
         y="-87.800003"
         font-size="14.00"
         id="text57"
         style="font-size:14px;text-anchor:start;font-family:'Times,serif'">function pairs (95): 340 -&gt; 352, 424 -&gt; 426...</text>
    </g>
    <!-- n0x26ee830&#45;&gt;n0x2457880 -->
    <g
       id="edge2"
       class="edge">
      <title
         id="title60">n0x26ee830-&gt;n0x2457880</title>
      <path
         d="m 213.796,-162.073 c -5.379,8.606 -11.456,18.329 -17.176,27.482"
         id="path62"
         inkscape:connector-curvature="0"
         style="fill:none;stroke:#000000" />
      <polygon
         points="191.279,-126.046 193.611,-136.381 199.547,-132.671 199.547,-132.671 "
         id="polygon64"
         style="fill:#000000;stroke:#000000" />
    </g>
    <!-- n0x2448a10 -->
    <g
       id="node4"
       class="node">
      <title
         id="title67">n0x2448a10</title>
      <ellipse
         cx="379"
         cy="-18"
         rx="28.3955"
         ry="18"
         id="ellipse69"
         d="m 407.3955,-18 c 0,9.9411255 -12.7131,18 -28.3955,18 -15.6824,0 -28.3955,-8.0588745 -28.3955,-18 0,-9.941125 12.7131,-18 28.3955,-18 15.6824,0 28.3955,8.058875 28.3955,18 z"
         sodipodi:cx="379"
         sodipodi:cy="-18"
         sodipodi:rx="28.3955"
         sodipodi:ry="18"
         style="fill:none;stroke:#000000" />
      <text
         x="365"
         y="-14.3"
         font-size="14.00"
         id="text71"
         style="font-size:14px;text-anchor:start;font-family:'Times,serif'">max</text>
    </g>
    <!-- n0x2457880&#45;&gt;n0x2448a10 -->
    <g
       id="edge3"
       class="edge">
      <title
         id="title74">n0x2457880-&gt;n0x2448a10</title>
      <path
         d="m 237.315,-73.8681 c 35.898,13.9016 79.566,30.8121 108.851,42.1531"
         id="path76"
         inkscape:connector-curvature="0"
         style="fill:none;stroke:#000000" />
      <polygon
         points="355.515,-28.0948 344.925,-28.4423 347.453,-34.9699 347.453,-34.9699 "
         id="polygon78"
         style="fill:#000000;stroke:#000000" />
    </g>
    <!-- n0x24489f0&#45;&gt;n0x2448a10 -->
    <g
       id="edge5"
       class="edge">
      <title
         id="title81">n0x24489f0-&gt;n0x2448a10</title>
      <path
         d="m 519.98,-73.3289 c -35.73,13.7692 -78.758,30.3507 -107.806,41.5447"
         id="path83"
         inkscape:connector-curvature="0"
         style="fill:none;stroke:#000000" />
      <polygon
         points="402.518,-28.0629 410.59,-34.9247 413.107,-28.393 413.107,-28.393 "
         id="polygon85"
         style="fill:#000000;stroke:#000000" />
    </g>
  </g>
</svg>
